<svg width="296" height="296" viewBox="0 0 296 296" fill="none" xmlns="http://www.w3.org/2000/svg">
<g clip-path="url(#clip0_42_4)">
<path d="M113.49 156.057C113.17 156.229 112.903 156.484 112.717 156.796L54.2816 254.93C53.7337 255.85 54.0077 257.038 54.903 257.625C55.7984 258.213 56.9974 257.991 57.6231 257.122L133.525 151.699V307C133.525 308.105 134.42 309 135.525 309H148.706C149.243 309 149.757 308.784 150.134 308.4C150.51 308.017 150.716 307.498 150.705 306.961L147.669 150.138H152.468L156.345 152.856C156.64 153.063 156.986 153.187 157.346 153.213L276.853 162.014C277.921 162.093 278.861 161.317 278.986 160.253C279.111 159.19 278.377 158.217 277.32 158.045L159.493 138.955V133.616C159.493 132.512 158.598 131.616 157.493 131.616H136.446L134.789 129.68L132.233 111.337C132.204 111.129 132.142 110.926 132.05 110.737L85.917 16.1235C85.5088 15.2864 84.5769 14.8418 83.6695 15.0512C82.7621 15.2607 82.1193 16.0687 82.1193 17V26.6813C82.1193 26.9354 82.1677 27.1872 82.2619 27.4231L119.168 119.836C119.189 119.887 119.212 119.938 119.236 119.987L127.292 136.124L124.931 149.918L113.49 156.057Z" fill="#969696" stroke="#969696" stroke-width="4" stroke-linejoin="round"/>
<rect x="13.5" y="287.5" width="263" height="9" fill="#969696" stroke="#969696"/>
</g>
<defs>
<clipPath id="clip0_42_4">
<rect width="296" height="296" fill="white"/>
</clipPath>
</defs>
</svg>
