<svg width="60" height="51" viewBox="0 0 60 51" fill="none" xmlns="http://www.w3.org/2000/svg">
<path d="M15.3219 43.0152C12.8755 40.9545 12.4893 37.9924 11.4592 35.4167C10.8155 33.7424 9.65665 32.3258 8.49785 30.9091C10.0429 35.2879 9.14163 38.3788 12.8755 41.4697C12.2318 41.2121 11.588 40.697 11.073 40.3106C8.11159 37.8636 3.73391 37.4773 1.93133 33.4848C2.44635 36.447 4.76395 39.0227 7.2103 40.697C9.65665 42.2424 12.7468 42.1136 15.3219 43.0152ZM21.7597 44.5606C22.1459 44.4318 22.6609 44.4318 23.176 44.303C21.3734 44.0455 19.6996 43.4015 18.412 42.2424C16.4807 40.4394 14.8069 38.6364 12.7468 37.2197C14.9356 41.5985 15.7082 43.4015 19.3133 44.1742C19.3133 44.1742 18.2833 44.0455 17.7682 43.9167C13.9056 43.1439 9.27039 44.1742 6.43777 40.9545C7.59657 43.0152 9.78541 44.6894 11.8455 45.4621C15.1931 46.4924 18.6695 45.3333 21.7597 44.5606ZM26.9099 44.303C20.7296 44.303 17.5107 49.7121 11.4592 46.1061C14.4206 49.7121 19.1845 49.9697 23.0472 47.5227C24.5923 46.4924 26.0086 45.0758 27.9399 45.0758C30.9013 45.0758 34.1202 48.1667 36.824 51C37.3391 50.6136 37.7253 50.2273 38.1116 49.8409C35.279 47.1364 31.1588 44.303 26.9099 44.303ZM9.5279 38.25C9.5279 38.25 8.75536 36.8333 8.49785 35.9318C7.59657 32.4545 8.11159 28.2045 6.56652 24.8561C6.82403 26.7879 6.0515 28.4621 5.92275 30.2652C5.66524 32.7121 6.56652 34.3864 7.2103 35.5455C7.2103 35.5455 6.30901 34.3864 5.92275 33.7424C4.12017 30.9091 0.386266 28.9773 0.128755 25.5C-0.386266 33.0985 4.8927 35.1591 9.5279 38.25ZM7.72532 15.7121C8.24034 14.6818 8.49785 13.3939 8.75536 12.2348C8.49785 12.75 8.24034 13.2652 7.85408 13.6515C5.40773 15.7121 3.99142 16.8712 3.34764 20.0909L3.60515 17.2576C3.86266 14.4242 2.3176 11.3333 3.99142 8.88636C2.3176 10.6894 1.41631 13.0076 1.41631 15.3258C1.41631 18.4167 3.21888 20.6061 3.34764 23.5682C3.86266 20.4773 6.43777 18.2879 7.72532 15.7121ZM6.82403 10.0455C7.98283 9.01515 9.39914 8.11364 10.4292 6.82576C11.588 5.2803 12.618 3.47727 14.1631 2.06061C12.103 2.96212 9.78541 3.73485 8.3691 5.92424C7.59657 7.21212 7.46781 8.75758 6.82403 10.0455ZM4.24893 16.2273C4.76395 15.197 5.66524 14.1667 6.56652 13.3939C8.88412 11.7197 11.2017 9.5303 11.3305 6.69697C10.0429 9.78788 6.0515 10.303 5.15021 13.5227C5.15021 13.5227 5.66524 11.5909 5.79399 11.2045C6.43777 9.01515 6.30901 6.43939 8.49785 5.02273C4.24893 5.92424 3.99142 10.5606 4.24893 14.0379C4.24893 14.8106 4.37768 15.4545 4.24893 16.2273ZM4.8927 31.1667C4.8927 31.1667 4.63519 28.7197 5.02146 27.6894C6.0515 24.5985 7.08154 21.25 6.95279 18.0303C5.92275 21.8939 2.70386 23.1818 4.12017 28.4621C3.60515 27.4318 3.47639 26.2727 3.09013 25.2424C2.3176 22.4091 0.128755 19.9621 0.772532 16.6136C-0.257511 19.5758 -0.257511 21.8939 0.772532 24.9848C1.41631 27.303 3.73391 28.9773 4.8927 31.1667Z" fill="#B2B2B2"/>
<path d="M44.6781 43.0152C47.1245 40.9545 47.5107 37.9924 48.5408 35.4167C49.1845 33.7424 50.3433 32.3258 51.5021 30.9091C49.9571 35.2879 50.8584 38.3788 47.1245 41.4697C47.7682 41.2121 48.412 40.697 48.927 40.3106C51.8884 37.8636 56.2661 37.4773 58.0687 33.4848C57.5536 36.447 55.236 39.0227 52.7897 40.697C50.3433 42.2424 47.2532 42.1136 44.6781 43.0152ZM38.2403 44.5606C37.8541 44.4318 37.3391 44.4318 36.824 44.303C38.6266 44.0455 40.3004 43.4015 41.588 42.2424C43.5193 40.4394 45.1931 38.6364 47.2532 37.2197C45.0644 41.5985 44.2918 43.4015 40.6867 44.1742C40.6867 44.1742 41.7167 44.0455 42.2318 43.9167C46.0944 43.1439 50.7296 44.1742 53.5622 40.9545C52.4034 43.0152 50.2146 44.6894 48.1545 45.4621C44.8069 46.4924 41.3305 45.3333 38.2403 44.5606ZM33.0901 44.303C39.2704 44.303 42.4893 49.7121 48.5408 46.1061C45.5794 49.7121 40.8154 49.9697 36.9528 47.5227C35.4077 46.4924 33.9914 45.0758 32.0601 45.0758C29.0987 45.0758 25.8798 48.1667 23.176 51C22.6609 50.6136 22.2747 50.2273 21.8884 49.8409C24.721 47.1364 28.8412 44.303 33.0901 44.303ZM50.4721 38.25C50.4721 38.25 51.2446 36.8333 51.5021 35.9318C52.4034 32.4545 51.8884 28.2045 53.4335 24.8561C53.176 26.7879 53.9485 28.4621 54.0773 30.2652C54.3348 32.7121 53.4335 34.3864 52.7897 35.5455C52.7897 35.5455 53.691 34.3864 54.0773 33.7424C55.8798 30.9091 59.6137 28.9773 59.8712 25.5C60.3863 33.0985 55.1073 35.1591 50.4721 38.25ZM52.2747 15.7121C51.7597 14.6818 51.5021 13.3939 51.2446 12.2348C51.5021 12.75 51.7597 13.2652 52.1459 13.6515C54.5923 15.7121 56.0086 16.8712 56.6524 20.0909L56.3948 17.2576C56.1373 14.4242 57.6824 11.3333 56.0086 8.88636C57.6824 10.6894 58.5837 13.0076 58.5837 15.3258C58.5837 18.4167 56.7811 20.6061 56.6524 23.5682C56.1373 20.4773 53.5622 18.2879 52.2747 15.7121ZM53.176 10.0455C52.0172 9.01515 50.6009 8.11364 49.5708 6.82576C48.412 5.2803 47.382 3.47727 45.8369 2.06061C47.897 2.96212 50.2146 3.73485 51.6309 5.92424C52.4034 7.21212 52.5322 8.75758 53.176 10.0455ZM55.7511 16.2273C55.236 15.197 54.3348 14.1667 53.4335 13.3939C51.1159 11.7197 48.7983 9.5303 48.6695 6.69697C49.9571 9.78788 53.9485 10.303 54.8498 13.5227C54.8498 13.5227 54.3348 11.5909 54.206 11.2045C53.5622 9.01515 53.691 6.43939 51.5021 5.02273C55.7511 5.92424 56.0086 10.5606 55.7511 14.0379C55.7511 14.8106 55.6223 15.4545 55.7511 16.2273ZM55.1073 31.1667C55.1073 31.1667 55.3648 28.7197 54.9785 27.6894C53.9485 24.5985 52.9185 21.25 53.0472 18.0303C54.0773 21.8939 57.2961 23.1818 55.8798 28.4621C56.3948 27.4318 56.5236 26.2727 56.9099 25.2424C57.6824 22.4091 59.8712 19.9621 59.2275 16.6136C60.2575 19.5758 60.2575 21.8939 59.2275 24.9848C58.5837 27.303 56.2661 28.9773 55.1073 31.1667Z" fill="#B2B2B2"/>
<path fill-rule="evenodd" clip-rule="evenodd" d="M30 0.515152C18.5513 0.515152 9.27039 9.79846 9.27039 21.25C9.27039 32.7015 18.5513 41.9848 30 41.9848C41.4487 41.9848 50.7296 32.7015 50.7296 21.25C50.7296 9.79846 41.4487 0.515152 30 0.515152ZM8.75536 21.25C8.75536 9.51395 18.2669 0 30 0C41.7331 0 51.2446 9.51395 51.2446 21.25C51.2446 32.986 41.7331 42.5 30 42.5C18.2669 42.5 8.75536 32.986 8.75536 21.25Z" fill="#B2B2B2"/>
<path fill-rule="evenodd" clip-rule="evenodd" d="M30 4.89394C20.9691 4.89394 13.6481 12.2168 13.6481 21.25C13.6481 30.2832 20.9691 37.6061 30 37.6061C39.0309 37.6061 46.3519 30.2832 46.3519 21.25C46.3519 12.2168 39.0309 4.89394 30 4.89394ZM13.133 21.25C13.133 11.9323 20.6846 4.37879 30 4.37879C39.3154 4.37879 46.867 11.9323 46.867 21.25C46.867 30.5677 39.3154 38.1212 30 38.1212C20.6846 38.1212 13.133 30.5677 13.133 21.25Z" fill="#B2B2B2"/>
<path fill-rule="evenodd" clip-rule="evenodd" d="M30 8.88636C23.1735 8.88636 17.6395 14.4218 17.6395 21.25C17.6395 28.0782 23.1735 33.6136 30 33.6136C36.8265 33.6136 42.3605 28.0782 42.3605 21.25C42.3605 14.4218 36.8265 8.88636 30 8.88636ZM17.1245 21.25C17.1245 14.1372 22.889 8.37121 30 8.37121C37.111 8.37121 42.8755 14.1372 42.8755 21.25C42.8755 28.3628 37.111 34.1288 30 34.1288C22.889 34.1288 17.1245 28.3628 17.1245 21.25Z" fill="#B2B2B2"/>
<path fill-rule="evenodd" clip-rule="evenodd" d="M30 13.2652C25.5912 13.2652 22.0172 16.8401 22.0172 21.25C22.0172 25.6599 25.5912 29.2348 30 29.2348C34.4088 29.2348 37.9828 25.6599 37.9828 21.25C37.9828 16.8401 34.4088 13.2652 30 13.2652ZM21.5021 21.25C21.5021 16.5556 25.3068 12.75 30 12.75C34.6932 12.75 38.4979 16.5556 38.4979 21.25C38.4979 25.9444 34.6932 29.75 30 29.75C25.3068 29.75 21.5021 25.9444 21.5021 21.25Z" fill="#B2B2B2"/>
<path fill-rule="evenodd" clip-rule="evenodd" d="M30 17.2576C27.7956 17.2576 26.0086 19.045 26.0086 21.25C26.0086 23.455 27.7956 25.2424 30 25.2424C32.2044 25.2424 33.9914 23.455 33.9914 21.25C33.9914 19.045 32.2044 17.2576 30 17.2576ZM25.4936 21.25C25.4936 18.7605 27.5112 16.7424 30 16.7424C32.4888 16.7424 34.5064 18.7605 34.5064 21.25C34.5064 23.7395 32.4888 25.7576 30 25.7576C27.5112 25.7576 25.4936 23.7395 25.4936 21.25Z" fill="#B2B2B2"/>
<path fill-rule="evenodd" clip-rule="evenodd" d="M29.7425 17V0.257576H30.2575V17H29.7425ZM26.8565 18.47L15.011 6.62153L15.3752 6.25726L27.2207 18.1057L26.8565 18.47ZM44.989 6.62153L33.1435 18.47L32.7793 18.1057L44.6248 6.25726L44.989 6.62153ZM25.7511 21.5076H9.01288V20.9924H25.7511V21.5076ZM50.9871 21.5076H34.2489V20.9924H50.9871V21.5076ZM27.2207 24.3943L15.3752 36.2427L15.011 35.8785L26.8565 24.03L27.2207 24.3943ZM44.6248 36.2427L32.7793 24.3943L33.1435 24.03L44.989 35.8785L44.6248 36.2427ZM29.7425 42.2424V25.5H30.2575V42.2424H29.7425Z" fill="#B2B2B2"/>
<path d="M28.9828 26.4273C29.0343 26.3242 29.1373 25.9121 29.2661 26.0409C29.3948 26.1697 29.4721 26.0409 29.4721 26.0409C29.4721 26.0409 29.5365 26.1053 29.4979 26.2341C29.4721 26.3629 29.4335 26.4917 29.3562 26.5174C29.279 26.5303 29.2146 26.5818 29.1116 26.5947C29.0343 26.6076 28.9828 26.4273 28.9828 26.4273ZM30.0386 26.2598C30.0644 26.2341 30.103 26.3629 30.1674 26.3371C30.2318 26.3242 30.2575 26.453 30.1931 26.453C30.1288 26.453 30.1288 26.5303 30.1288 26.5689C30.1288 26.6076 30.1288 26.6848 30.0773 26.7364C30.0258 26.7879 29.9871 26.7492 29.9227 26.7235C29.8584 26.6848 29.8326 26.6848 29.7425 26.6848C29.6652 26.6848 29.7296 26.8136 29.7296 26.8136C29.7296 26.8136 29.3948 26.8008 29.4592 26.7492C29.5236 26.6977 29.588 26.6848 29.5365 26.6462C29.485 26.6076 29.5365 26.5818 29.5365 26.5174C29.5365 26.453 29.691 26.4788 29.6524 26.4401C29.6009 26.3886 29.6524 26.2083 29.7296 26.3114L29.7811 26.1955C29.7296 26.1439 29.7682 26.1311 29.6652 26.0924C29.5751 26.0538 29.6524 25.8606 29.6524 25.8606L29.6652 25.7318C29.691 25.5644 30.0129 25.5515 30.0386 25.6932C30.0515 25.8348 30.0386 25.9379 30.0386 25.9379L30.1288 25.9765C30.1288 25.9765 30.1159 26.0795 30.0386 26.0795C29.9614 26.0795 30.0386 26.1311 29.9871 26.1826L30.0386 26.2598ZM41.897 18.4295C41.8069 18.5197 41.6137 18.5583 41.6137 18.5583L41.5494 18.803L41.4464 18.8932C41.4464 18.8932 41.4721 18.9576 41.4464 19.1121C41.4206 19.2667 41.2275 19.3568 41.2275 19.3568L41.1373 19.4598C41.1373 19.4598 40.6223 19.4856 40.5579 19.4598C40.3648 19.3697 40.4936 19.1121 40.6223 19.1379C40.7511 19.1636 40.5966 18.7644 40.5966 18.7644L40.7639 18.7386C40.7639 18.7386 40.7897 18.3523 40.8541 18.3523C40.9185 18.3523 40.8283 18.2235 40.7511 18.1591C40.6609 18.0947 40.5579 17.8758 40.4678 17.9015C40.3777 17.9273 40.0429 17.9015 40.0429 17.9015L39.9785 18.0303L39.7468 18.0689C39.7468 18.0689 39.7725 18.2364 39.721 18.2879C39.5923 18.4424 39.103 18.7644 39.309 18.2235L39.3734 18.0947V17.9015L38.9871 17.8758C38.9871 17.8758 38.794 17.8114 38.794 17.7212C38.794 17.6311 38.7682 17.528 38.7682 17.528L38.3176 17.0258L37.7768 16.9614L37.7382 16.8583L37.4163 16.8197C37.03 16.6265 36.6824 16.7939 36.7468 17.1288C36.8112 17.4508 36.9142 17.5795 36.7082 17.5795C36.4893 17.5795 36.4506 17.4121 36.4506 17.4121C36.4506 17.4121 36.2833 17.3477 36.2833 17.4379C36.2833 17.528 36.2189 17.6955 36.2833 17.7856C36.3476 17.8758 36.1931 18.0045 36.1288 17.9401C36.0644 17.8758 35.897 17.6826 35.9356 17.6182C35.9742 17.5538 35.6395 17.1417 35.9743 17.0773C36.3219 17.0129 35.9485 16.8197 36.0773 16.7682L36.2446 16.678H36.412L36.515 16.5879L36.2318 16.5492L36.0644 16.5235L35.7425 16.4977C35.4206 16.7167 35.3562 16.9742 35.3562 16.9742C35.1888 17.2962 34.7768 16.8455 34.9313 16.6651C35.0858 16.4848 34.4549 16.6394 34.3519 16.7295C34.2489 16.8197 33.927 16.7682 33.927 16.7682C33.8627 16.9614 33.5665 16.7424 33.6438 16.6136C33.7339 16.4848 33.7339 16.3947 33.7339 16.3947L33.6309 16.3689L33.5021 16.6136C33.206 16.6136 33.1159 16.7811 33.1803 16.897C33.2446 17 33.0901 16.8712 33.0515 17.0258C33.0129 17.1803 33.0773 17.1803 33.206 17.2447C33.3348 17.3091 33.1416 17.3091 33.2318 17.4121C33.3219 17.5151 33.5794 17.4121 33.4249 17.5667C33.2704 17.7212 32.9742 17.6568 32.9742 17.6568C32.9485 17.85 32.5494 17.8114 32.4979 17.747C32.4592 17.6826 32.1373 17.2962 32.1373 17.2962L31.7253 17.2705C31.6867 16.9614 31.9185 17.1159 32.0086 16.8841C32.0987 16.6394 32.1373 16.253 32.1373 16.253C32.1373 16.253 31.7897 16.2273 31.7768 16.3432C31.7511 16.4462 31.5451 16.5235 31.5451 16.5235C31.5451 16.5235 31.3777 16.5879 31.4421 16.678C31.5064 16.7682 31.3133 16.8068 31.3133 16.8068C31.3133 16.8068 31.3519 16.9485 31.2876 17C31.1202 17.1803 30.6824 17.0258 30.618 16.9614L30.3605 16.8583L30.103 16.6909L29.8069 16.8197L29.7167 16.9098H29.3948L29.3691 17.1674L29.9485 17.2318L29.9871 17.7727L29.7554 17.6955H29.6009L29.5365 17.5667L29.4077 17.5409V18.0174L29.5365 18.1205L29.6395 18.2235L29.8584 18.2492L29.897 18.5068L30.4378 18.5326L30.5021 18.6356L30.824 18.6614L31.4421 19.2924L31.4034 19.4856L31.3004 19.55C31.3391 19.7045 31.0172 19.6144 31.0172 19.6144V19.7432L31.1717 19.7689L31.3262 19.8591L31.5451 19.4856C31.7768 19.3311 31.8927 19.55 31.9056 19.6788C31.9313 19.8076 31.8026 19.7818 31.8026 19.7818V20.0909L31.9313 20.1295C32.1502 20.3871 31.8412 20.5417 31.8412 20.5417L31.7768 20.7606C31.7124 20.9538 31.4807 20.9151 31.4807 20.9151L31.3906 21.0439L31.133 21.1083L31.6352 21.1727C31.6867 20.9924 31.8155 20.9538 31.8798 21.0439C31.9442 21.1341 31.9442 21.2886 31.9442 21.2886L32.073 21.3144L32.0472 21.5591L32.176 21.5977V22.2932L32.3305 22.4606C32.588 22.3576 32.588 22.525 32.4592 22.6151C32.3305 22.7053 32.4206 23.0917 32.4206 23.0917L32.3176 23.1947V23.375L32.1888 23.4651V23.7098C31.97 23.6068 31.7124 23.6455 31.6481 23.7098C31.4549 23.5811 31.0429 23.6197 31.0429 23.7356C31.1717 23.903 30.8884 23.9545 30.8884 23.9545L30.7339 24.122C30.8369 24.3409 30.6309 24.3667 30.6309 24.3667V24.7788L30.3734 25.0235L30.3991 25.5901C30.3991 25.7447 30.721 25.7576 30.7854 25.6803C30.8498 25.5902 31.1073 25.8606 31.1073 25.8606H31.3004L31.3391 25.4742L31.2103 25.4098V24.7788L31.4292 24.5341C31.6867 24.4439 31.5966 25.1008 31.5966 25.1651C31.6223 25.4098 31.7253 25.3841 31.8283 25.3326C32.0472 25.2424 31.867 25.5773 31.6996 25.5515C31.5322 25.5258 31.6352 25.7705 31.6352 25.7705L31.7382 25.8091L31.5451 25.9636L31.3777 26.1568L31.1588 26.0924L30.9013 26.0667L30.8112 25.9121L30.6567 25.8864L30.6309 26.1955L30.5279 26.3242L30.2704 26.5818C30.618 26.5818 30.2318 26.8265 30.1416 26.8265C30.3348 26.8909 30.1159 27.0841 29.6266 26.9295V27.0841L29.4592 27.1098L29.6137 27.2773L29.7811 27.303L29.7167 27.6765C29.7167 27.9598 29.0086 27.7667 28.9442 27.7023L28.9185 28.0886L28.7897 28.1144L28.8155 28.372L28.7897 28.7455L29.0215 28.7068V28.8614L29.6009 28.8871L30.4378 27.9985L30.927 27.8955C30.9657 27.6765 31.1845 27.9341 31.1845 27.9341C31.4034 27.9083 31.4421 28.0629 31.4421 28.0629L31.7253 28.1015C31.9571 28.1659 31.8155 28.1917 31.8283 28.2818C31.8541 28.4106 31.9571 28.372 31.9571 28.372L31.9957 28.0886L32.1245 28.1144L31.9957 27.9598L31.7639 27.8568L31.5064 27.7538C31.3391 27.5091 31.5451 27.5606 31.7253 27.5864H32.0086C32.0086 27.5864 32.3305 28.0242 32.3305 28.1273C32.3305 28.2303 32.485 28.2561 32.485 28.2561L32.6781 28.2303L32.7425 28.3848H32.9356L33 28.5136H33.3863L33.412 28.3205L33.0515 28.2561L33.0257 28.0371L32.7682 27.9727C32.6781 27.5992 32.8326 27.4962 32.9356 27.6636L33.0644 27.6894L33.0257 27.3674L33.1803 27.3288L33.1416 26.878L33.0129 26.8394V26.6848L33.5536 26.7106C33.515 26.4273 33.5794 26.2985 33.5794 26.2985H33.7339L33.7597 26.4015L34.4163 26.4659L34.8798 25.9379C34.8541 25.8992 34.9313 25.8735 34.8798 25.822C34.8155 25.7576 34.7253 25.822 34.6223 25.7576C34.5193 25.6932 34.6223 25.3197 34.5966 25.2424C34.5708 25.1523 34.9571 25.0235 34.8927 25.2167C34.8283 25.4098 34.8927 25.5 34.8927 25.5C35.176 25.2424 35.4077 25.5258 35.382 25.5901C35.3562 25.6545 35.5365 25.7189 35.6395 25.6545C35.7425 25.5901 35.8712 25.8477 35.8326 25.9765C35.794 26.1053 35.4077 26.0795 35.382 25.9508C35.3562 25.822 35.2918 25.8606 35.2532 25.925C35.2146 25.9894 35.0215 26.028 34.9056 25.9636C34.8798 25.9508 34.8798 25.9379 34.867 25.925L34.4034 26.453H34.4292C34.6867 26.6076 34.5579 26.8008 34.4678 26.8394C34.3777 26.878 34.2361 26.878 34.2361 26.878L34.1974 26.9682L33.6438 27.0068L33.6051 27.2258C33.3219 27.1871 33.2189 27.4833 33.2833 27.6379C33.3476 27.7924 33.2833 27.9212 33.2833 27.9212L33.515 28.0242L33.8112 27.9341C33.8498 27.7152 34.0429 27.6765 34.2232 27.5477C34.3906 27.4189 34.6738 27.7924 34.5837 27.9598C34.4936 28.1273 34.4936 28.2045 34.4936 28.2045L34.5193 28.3977L34.3004 28.4879L34.133 28.578L34.1073 28.6811H33.5279L33.4249 28.7841L33.1416 28.8098L33.0515 28.9386L32.8584 28.9644C32.8584 28.9644 32.5365 29.1189 32.6652 29.2864C32.794 29.4667 32.1245 29.4409 31.9828 29.1962C31.9442 29.4151 31.6996 29.222 31.6996 29.222L31.4678 29.1576L31.4421 28.8356C31.4034 28.6167 30.9914 28.6167 31.0172 28.7712C31.0429 28.9258 30.2446 28.8356 30.2446 28.8356L29.9871 28.9644L29.7554 29.1061L29.7296 29.2091L29.3433 29.2477L29.176 29.3379L29.1116 29.2091H28.9442L28.7768 29.4538C28.3262 29.4795 27.9013 29.7371 27.9399 29.8401C27.9785 29.9432 27.7725 30.0591 27.7725 30.0591L27.5794 30.1235L27.4506 30.3167L27.1931 30.4068L27.1545 30.8576L27.0257 30.9477V31.1409L26.8712 31.1795V31.2826L26.6524 31.3083L26.7811 31.6303L26.9485 31.7205C27.2446 31.7591 27.1159 32.1326 27.1159 32.1326L27.2833 32.1583L27.3734 32.403L27.5408 32.7508C27.6052 33.0083 27.7983 32.9439 27.8884 32.9311C27.9785 32.9053 28.0558 33.1886 28.0558 33.1886L28.9056 33.2144C28.9056 33.2144 28.867 33.3045 29.0086 33.3432C29.1631 33.3818 30.1416 33.4333 30.1803 33.3689C30.1416 33.1758 30.721 33.1242 30.9528 33.3045C31.1845 33.472 31.5064 33.3689 31.5064 33.3689L31.8283 33.7553L32.0472 34.2318L32.4077 34.3348L32.6652 34.3992L32.7554 34.7727L32.9485 34.7985L33.0129 35.0432C33.2446 35.2106 32.9485 35.5841 32.9485 35.5841V36.0606L33.1159 36.1508L33.0901 36.3311L33.3734 36.6144L33.6953 36.6402L34.5064 37.503L35.1502 37.6962L35.2532 38.0439L35.4206 38.0182L35.5494 37.9151L36.0644 37.8894L36.3219 37.6447L36.6051 37.6061L38.9871 35.5841L38.7682 35.4553V34.9788C39.1545 34.6954 39.1803 34.1932 38.8069 34.1545C38.5365 34.1159 38.6524 33.8326 38.9099 33.7811L39.0644 33.7167V33.5235L39.5536 33.0727V32.725L38.485 31.8364C38.0086 31.6689 38.485 30.6258 38.8069 30.6386C39.1288 30.6644 38.7811 29.0288 38.7811 29.0288L38.6137 28.9386L38.6524 28.4106H38.4206L38.0343 28.9129L37.9313 29.2606C37.8927 29.7114 36.5665 29.6341 36.5021 29.5697C36.4378 29.5053 35.9871 29.3121 35.9871 29.3121C35.9871 29.3121 35.6395 29.0288 35.5751 29.1189C35.5107 29.2091 35.2146 29.0159 35.2146 29.0803C35.2146 29.1447 34.9313 28.9258 34.9313 28.9258L34.5064 28.7712L34.8283 28.7068L34.7639 28.4492L35.3176 28.7326C35.382 28.8227 35.6652 28.797 35.6652 28.797L35.7554 28.9C35.7554 28.9 35.9227 28.8742 36.0386 29.003C36.1416 29.1318 36.7082 29.0288 36.7082 29.0288L36.8627 29.1576L37.0944 29.2477L37.7639 29.2735L37.7897 28.8614L37.9185 28.7326L37.8927 28.475L38.0472 28.3462V28.1273L38.176 28.0886L38.2017 27.6121L38.3047 27.5864V26.5432L37.9828 26.2341C37.9571 26.3371 37.6223 26.3371 37.6223 26.3371C37.6223 26.3371 37.5322 26.4917 37.4678 26.4917C37.4034 26.4917 37.5579 26.6848 37.5064 26.8136C37.4678 26.9424 37.2876 26.9424 37.2876 26.9424L36.9657 27.0326L36.8755 27.1356H36.5279L36.4893 26.8523L36.8755 26.7492L37.0944 26.6462L37.1974 26.4273C37.2232 26.2083 37.4807 26.2341 37.4807 26.2341C37.4807 26.2341 37.97 25.822 37.9957 25.6288C38.0215 25.4356 38.1888 24.8947 38.485 24.8947H39.0386C39.2575 24.8045 39.1931 24.5212 39.1931 24.5212L39.4764 24.4826L39.515 24.6371C39.515 24.6371 39.9013 24.6758 39.9399 24.6114C39.9785 24.547 40.0687 24.3924 40.1717 24.4568C40.2747 24.5212 40.6223 24.3023 40.6223 24.3023C40.6481 24.1477 41.176 24.2121 41.176 24.2121L41.2403 24.0189C41.2403 24.0189 40.8798 23.5167 40.8154 23.5167C40.7511 23.5167 40.4034 23.2076 40.3648 23.3235C40.0172 23.2333 40.0429 22.7568 40.0429 22.7568L39.9142 22.4477C39.9142 22.2674 39.5923 21.9068 39.5279 21.9455C39.206 21.7008 39.4378 21.4303 39.5279 21.4045C39.618 21.3788 39.824 21.0826 39.824 21.0826L39.927 20.7735L40.2876 20.6705L40.3262 20.3871L40.133 20.3614C40.133 20.3614 40.3519 19.975 40.4549 19.975C40.5579 19.975 41.2661 19.975 41.3305 19.9364C41.3948 19.8977 41.5236 19.55 41.5236 19.4856C41.5236 19.4212 41.691 19.3955 41.7554 19.3826C41.8197 19.3568 41.9742 19.1894 42.0129 19.0992C42.1288 18.8803 41.9871 18.3394 41.897 18.4295ZM47.8326 25.3712C47.8197 25.3326 47.8069 25.2939 47.7682 25.2811C47.6781 25.2424 47.5107 25.3068 47.4335 25.3583L47.5107 25.4614C47.588 25.4098 47.7039 25.3841 47.7167 25.397V25.3841L47.8326 25.3712ZM48.3863 27.9598L48.2575 27.947C48.2446 28.05 48.2704 28.1788 48.3734 28.1917L48.3991 28.0629C48.3991 28.0629 48.3863 28.0114 48.3863 27.9598ZM48.8627 27.4447C48.9013 27.5735 48.9399 27.7023 48.9399 27.7151L49.0558 27.6636C49.0558 27.6636 49.0043 27.5348 48.9785 27.4061L48.8627 27.4447ZM49.1459 27.3417V27.3159C49.1459 27.2773 49.133 27.2258 49.1073 27.1742L48.9914 27.2386C49.0043 27.2644 49.0043 27.303 49.0172 27.3288C49.0172 27.3674 49.03 27.4061 49.0558 27.4318C49.0815 27.4447 49.1073 27.4576 49.1459 27.4447L49.1202 27.3159C49.1202 27.3288 49.133 27.3288 49.1459 27.3417ZM48.0515 28.2689C48.1416 28.2174 48.2575 28.1015 48.2446 28.3462C48.2318 28.5909 48.1288 28.5136 48.0515 28.5909C47.9743 28.6682 47.9227 28.3462 48.0515 28.2689ZM42.8884 29.9432L42.9013 29.75L43.1073 29.7758L43.0944 29.9561L42.8884 29.9432ZM42.9013 30.3682C42.8755 30.2523 42.7468 30.2136 42.7339 30.2136L42.6953 30.3424C42.7082 30.3424 42.721 30.3553 42.7339 30.3682L42.7597 30.4841C42.7468 30.497 42.7339 30.5098 42.7339 30.5227L42.824 30.6129C42.8884 30.5098 42.9142 30.4455 42.9013 30.3682ZM26.897 34.3864L26.7682 34.5023L26.7039 34.5538L26.7682 34.6053L26.9227 34.7083L27 34.6053L26.9099 34.5409L26.9742 34.4894L26.897 34.3864ZM28.4163 35.9447L28.3648 36.0606L28.4936 36.125L28.4549 36.1765L28.5451 36.2667L28.7124 36.0992L28.6352 36.0477L28.4163 35.9447ZM22.5064 7.99773L22.6352 8.12651L22.5451 8.21667L22.4163 8.08788L22.5064 7.99773ZM26.3948 12.0545L26.5236 12.1576L26.4464 12.2606L26.3176 12.1576L26.3948 12.0545ZM25.9056 12.1447L25.9313 12.3894H26.2532C26.382 12.3894 26.1502 12.2348 26.1502 12.2348C26.1502 12.2348 25.8927 12.2606 25.9056 12.1447ZM32.9614 6.09167L32.7425 6.06591L32.7296 6.1947L32.9099 6.20758L33.0515 6.42651L33.1545 6.34924L33.0129 6.11742L32.9871 6.09167H32.9614ZM33.5408 1.53258L33.4764 1.64848L33.6438 1.75151L33.6824 1.77727L33.7082 1.75151L33.9528 1.59697L33.8755 1.49394L33.6824 1.62273L33.5408 1.53258ZM34.6867 2.15076L34.5837 2.03485L34.4936 2.13788L34.6867 2.33106L34.7253 2.29242L34.9442 2.11212L34.8541 2.00909L34.6867 2.15076ZM27.5794 6.67121C27.5665 6.59394 28.0043 6.58106 28.0687 6.64545C28.133 6.70985 28.0944 6.82576 28.2876 6.82576C28.4807 6.82576 28.3906 6.95454 28.3777 7.01894C28.3519 7.08333 28.1459 7.05757 28.1202 6.99318C28.0944 6.92879 27.7725 6.90303 27.7725 6.90303C27.7725 6.90303 27.6052 6.77424 27.5794 6.67121ZM30.0386 6.42651C30.3734 6.52954 30.4893 6.45227 30.515 6.36212C30.5408 6.27197 30.5536 6.25909 30.6824 6.23333C30.8112 6.20758 30.6567 5.95 30.5279 5.97576C30.3991 6.00151 30.2704 5.93712 30.2446 5.82121C30.2189 5.71818 30.0129 5.43485 29.9871 5.65379C29.9614 5.87273 29.8326 5.87273 29.8584 6.02727C29.897 6.16894 29.9614 6.40076 30.0386 6.42651ZM32.1631 2.75606C32.1116 2.56288 31.8412 3.00076 32.1245 3.07803C32.4077 3.16818 32.6781 3.07803 32.6781 3.07803L32.7425 2.94924L33.8112 2.975C33.9013 2.88485 33.9399 2.75606 33.9399 2.75606C33.9399 2.75606 34.1974 2.66591 34.3004 2.71742C34.4034 2.75606 34.3262 2.40833 34.2103 2.45985C34.1073 2.49848 33.8884 2.48561 33.8884 2.48561H33.5021C33.4764 2.33106 33.1416 2.39545 33.1159 2.48561C33.103 2.56288 32.9742 2.58864 32.9742 2.58864L32.485 2.62727C32.4335 2.75606 32.1888 2.84621 32.1631 2.75606ZM32.2017 3.825L31.9185 3.54167V3.29697L31.8283 3.20682L31.7382 2.89773L31.4549 2.80758L31.1717 2.91061L30.8755 3.10379L30.5536 3.14242L30.3863 3.33561L31.0687 3.4L31.1974 3.61894L31.6867 3.65758L32.0086 3.97955C32.3047 4.10833 32.3691 3.97954 32.2017 3.825ZM33.1931 5.91136L33.2833 5.7053L33.3991 5.7697L33.309 5.96288L33.1931 5.91136ZM39.5923 5.69242C39.5536 5.525 40.0172 5.37045 40.133 5.49924C40.2361 5.62803 40.5451 5.65379 40.5837 6.29773C40.5966 6.52954 40.1974 6.05303 40.1974 6.05303L39.8755 5.95C39.6953 5.91136 39.6051 5.80833 39.5923 5.69242ZM37.3391 6.25909C37.2747 6.45227 37.2489 6.70985 37.1459 6.70985C37.0429 6.70985 37.0815 6.99318 37.0815 6.99318C37.0815 6.99318 37.3648 6.99318 37.4421 7.01894C37.5322 7.0447 37.5322 7.26364 37.5322 7.26364C37.8541 7.23788 37.9828 7.67576 37.9442 7.79167C37.9056 7.8947 38.073 7.8947 38.073 7.8947C38.073 7.8947 38.073 8.24242 38.0343 8.33257C37.9957 8.42273 38.3176 8.48712 38.3949 8.61591C38.485 8.7447 38.3562 9.18258 38.2918 9.20833C38.2275 9.23409 38.4592 9.29848 38.4464 9.40152C38.4206 9.50455 38.5107 9.40151 38.5365 9.58182C38.5622 9.74924 38.6009 10.1227 38.6009 10.1227L38.897 10.1485C38.9356 9.86515 39.4893 9.85227 39.5794 9.89091C39.9399 10.0197 40.2232 10.5864 40.2232 10.7152C40.2232 10.8439 39.9914 10.8697 39.9914 10.8697L40.03 11.5008C40.3906 11.6038 40.6996 12.1318 40.6481 12.222C40.6094 12.3121 40.9056 12.2864 40.9056 12.2864C40.9442 11.9 41.3176 12.0288 41.3305 12.1576C41.3562 12.2864 41.4206 12.5697 41.4206 12.5697L41.5236 12.7629L41.6781 12.9174L41.9099 12.8917L41.9742 13.0205L42.2575 13.0591C42.2575 13.0591 42.4893 13.3167 42.515 13.3811C42.5408 13.4455 42.8627 13.4197 42.9399 13.4455C43.03 13.4712 43.1588 13.5356 43.1717 13.6386C43.1974 13.7417 43.3262 13.922 43.3262 13.922C43.3262 13.922 43.5837 13.9864 43.6094 14.0765C43.6352 14.1667 43.7382 14.3598 43.7382 14.3598L43.9571 14.5402L43.9828 14.7333L44.2146 14.7591L44.279 15.0167L44.6652 14.9909L44.8841 14.8364C45.1674 14.6818 45.3605 14.4886 45.3734 14.3985C45.3991 14.3083 45.4378 13.9864 45.6567 14.0508C45.8755 14.1151 45.721 13.5742 45.721 13.5742C45.721 13.5742 45.4249 13.3553 45.4378 13.2523C45.4635 13.1492 45.1416 12.9303 45.1545 12.8402C45.1803 12.75 44.8712 12.5826 44.897 12.4924C44.9227 12.4023 44.7425 12.1705 44.7425 12.1705L44.4206 11.8614L44.382 11.6682L44.1245 11.6424L43.6094 11.0114L43.6352 10.8311L43.4807 10.8053V10.5606L43.3262 10.4705L43.0944 10.4447L42.618 9.92954L42.5794 9.68485H42.3476L42.3863 9.23409C42.5408 9.04091 42.4506 8.66742 42.4506 8.66742C42.4506 8.66742 42.1545 8.82197 42 8.75758C41.8455 8.69318 42.0644 8.53864 42.0644 8.53864V8.37121L41.9356 8.24242C41.9356 8.24242 41.5751 8.28106 41.5494 8.21667C41.5236 8.15227 41.4592 7.86894 41.4592 7.86894L41.4335 7.49545L41.279 7.43106L41.2532 7.30227L41.0215 7.32803V7.07045L40.8927 7.03182L40.7639 6.96742L40.7382 6.70985L40.2618 6.68409L40.1073 6.46515L39.9399 6.20758L39.3991 6.16894L39.2704 6.04015L39.0515 6.00151L38.897 5.93712L38.8326 6.04015L38.4206 6.06591L38.3949 6.1947C38.2146 6.28485 37.3648 6.1947 37.3391 6.25909ZM33.3991 6.1303C33.4378 6.1947 33.6953 6.25909 33.6953 6.25909C33.8627 6.25909 33.9785 6.38788 33.9785 6.45227C33.9785 6.51667 34.2103 6.49091 34.2103 6.49091L34.2361 6.33636L34.0687 6.11742L33.9142 6.01439C33.9142 6.01439 33.6824 5.98864 33.6824 5.92424C33.6824 5.87273 33.4378 6.06591 33.3991 6.1303ZM33.3991 6.86439L33.2318 6.82576V7.01894L33.4635 7.0447L33.3991 6.86439ZM35.7811 9.25985V9.09242C35.7811 9.09242 35.7554 8.925 35.6524 8.925C35.5494 8.925 35.3562 8.79621 35.3949 8.70606C35.4335 8.61591 35.0343 8.52576 35.0343 8.52576C35.0343 8.52576 34.6738 8.17803 34.8026 8.21667C34.9313 8.2553 34.867 8.06212 34.867 8.06212C34.867 8.06212 34.6094 8.10076 34.5451 8.08788C34.4807 8.06212 34.5064 7.86894 34.5064 7.86894C34.5064 7.86894 34.2489 7.80454 34.2489 7.86894C34.2489 7.93333 34.3391 7.93333 34.3777 8.06212C34.4163 8.19091 34.4034 8.40985 34.5966 8.44848C34.7897 8.48712 34.8283 8.53864 34.8541 8.62879C34.8798 8.71894 35.1116 8.73182 35.1116 8.73182L35.279 8.82197L35.7811 9.25985ZM35.9485 9.83939C35.9227 9.74924 35.8841 9.45303 36.0129 9.46591C36.1416 9.49167 36.0515 9.46591 36.206 9.5303C36.3605 9.5947 36.3734 9.42727 36.3734 9.42727H36.6051L36.9013 9.67197L36.8627 9.86515L36.6438 9.89091C36.5408 9.72348 36.3219 9.78788 36.3605 9.92954C36.3991 10.0841 36.2575 10.3674 36.1674 10.3803C36.0773 10.4061 35.8069 10.4061 35.8197 10.2773C35.8584 10.1485 35.9485 9.83939 35.9485 9.83939ZM39.4764 12.8015L39.6309 12.325C39.412 12.2864 39.4635 12.0417 39.4635 12.0417C39.4378 11.8485 39.1416 11.6295 39.0386 11.6939C38.9356 11.7583 38.9743 11.2432 38.9743 11.2432C38.9743 11.2432 39.1674 11.1144 39.2575 11.1788C39.3476 11.2432 38.5236 10.097 38.3562 10.2C38.1888 10.303 37.8026 10.097 37.8155 9.89091C37.8412 9.69773 37.0429 9.04091 37.0429 9.04091C37.0429 9.04091 36.7854 8.87348 36.7468 9.00227C36.7082 9.13106 36.618 9.22121 36.7468 9.2856C36.8755 9.35 36.8498 9.18257 37.0043 9.32424C37.1588 9.47879 37.4292 9.67197 37.3262 9.80076C37.2232 9.92954 37.0944 9.98106 37.0944 9.98106L37.2489 10.1614H37.4807L37.5193 10.5348C37.5193 10.5348 37.7768 10.6636 37.8412 10.8182C37.9056 10.9727 37.9056 11.0629 37.8412 11.1402C37.7768 11.2303 37.6481 11.3848 37.6738 11.5265C37.6996 11.6811 37.867 11.7455 37.867 11.7455L38.0343 11.7712L38.1631 11.8356V12.1189C38.3305 12.0803 38.6137 12.3121 38.588 12.4667C38.5622 12.6212 38.6266 12.5311 38.8455 12.6856C39.0644 12.8401 39 12.8659 39.1416 12.9689C39.2833 13.0591 39.412 12.9947 39.4764 12.8015ZM34.5579 15.5833C34.5579 15.6477 34.5193 15.7379 34.6481 15.7636C34.7768 15.7894 35.0086 15.6735 35.0343 15.8023C35.0601 15.9311 35.0601 16.0212 35.2275 16.0856C35.3948 16.15 35.5107 16.1758 35.6395 16.1758C35.7682 16.1758 36.0515 16.1371 36.0515 16.1371C36.0515 16.1371 36.3605 16.1886 36.412 16.2402C36.6438 16.4848 36.7983 16.5492 36.8627 16.4333C36.927 16.3303 36.8369 16.0856 36.824 15.9955C36.7983 15.9053 36.5021 15.4932 36.3991 15.5833C36.2961 15.6735 36.2704 15.5833 36.0773 15.6477C35.8841 15.7121 35.4721 15.6735 35.4592 15.5833C35.4335 15.4932 35.1373 15.4545 35.1373 15.3644C35.1373 15.2742 34.9185 15.1712 34.9442 15.3C34.97 15.4288 34.7897 15.4932 34.7511 15.4545C34.6867 15.403 34.5579 15.5833 34.5579 15.5833ZM33.4893 15.8152L33.4635 15.9697L33.6953 15.9955C33.6953 15.9955 33.7983 16.0856 33.7983 16.15C33.7983 16.2144 33.9528 16.2788 34.03 16.2788C34.1202 16.2788 34.3519 16.0985 34.3519 16.0985C34.3519 16.0985 34.4549 15.7894 34.3777 15.8152C34.2876 15.8409 34.1202 15.9697 34.0944 15.8409C34.0687 15.7121 33.8112 15.7765 33.8112 15.7765L33.4893 15.8152ZM32.382 16.0598L32.4464 16.047L32.485 16.1629L32.4206 16.1886L32.382 16.0598ZM32.4592 15.8538L32.588 15.828L32.6266 16.0212L32.5107 16.047L32.4592 15.8538ZM32.8197 15.8795L32.8326 16.0083L33.2961 15.9955V15.8667L32.8197 15.8795ZM36.9914 15.7765L37.2103 15.7508L37.2232 15.8795L37.0043 15.9053L36.9914 15.7765ZM37.5579 16.253L37.6223 16.0985L37.7382 16.15L37.6738 16.3045L37.5579 16.253ZM39.4249 14.0765L39.6438 14.0636L39.6567 14.1924L39.4378 14.2053L39.4249 14.0765ZM39.7854 14.2053H39.9142V14.3083H39.7854V14.2053ZM40.1717 12.3765L40.0429 12.3894L40.0172 12.1962L40.1459 12.1833L40.1717 12.3765ZM40.0429 15.0811H40.1717V15.2356H40.0429V15.0811ZM40.3262 15.1583L40.4421 15.2098L40.3777 15.3515L40.2618 15.2871L40.3262 15.1583ZM39.6953 13.4455C39.824 13.4455 39.6567 13.9477 39.9914 13.8962C40.3391 13.8576 40.0172 14.0508 40.2747 14.0636C40.5322 14.0894 40.4678 13.8705 40.5579 13.7159C40.6481 13.5614 40.5966 13.4712 40.4549 13.4326C40.3004 13.3939 40.3004 13.3939 40.2618 13.2136C40.2232 13.0462 40.0429 12.9947 40.0429 12.9947L39.9785 12.7371L39.6953 12.9045L39.412 13.278C39.412 13.5871 39.5665 13.4455 39.6953 13.4455ZM40.5322 14.6303C40.6996 14.5401 41.073 14.5402 41.0472 14.4114C41.0215 14.2826 41.2661 14.2439 41.2661 14.2439L41.3305 14.5015L41.5236 14.6303L41.5494 14.875C41.5494 14.875 41.6137 14.8364 41.382 14.9008C41.1502 14.9651 41.2918 15.0682 41.2918 15.0682L40.7768 15.0939L40.7124 14.875L40.5322 14.6303ZM37.7639 16.4462C37.867 16.4205 38.1245 16.4076 38.176 16.472C38.2146 16.5364 38.0215 16.6265 38.0215 16.6265L37.7639 16.6651C37.6867 16.5621 37.6609 16.472 37.7639 16.4462ZM39.1416 16.253C39.2575 16.3689 38.4979 16.3432 38.4979 16.253C38.4979 16.1629 38.5622 15.8667 38.7554 15.9311C38.9485 15.9955 38.9743 15.5447 38.9743 15.5447C38.9743 15.5447 38.8069 15.5705 38.9485 15.4803C39.103 15.3902 38.9485 15.2614 38.8841 15.197C38.8197 15.1326 38.7554 15.0167 38.7554 15.0167H39.0515C39.1803 14.9265 39.2189 14.5144 39.2189 14.5144C39.4764 14.6045 39.6051 14.4242 39.6051 14.4242C39.6051 14.4242 39.6438 14.553 39.7339 14.6689C39.824 14.772 39.515 14.8235 39.6309 14.8879C39.7339 14.9523 39.7854 15.1455 39.7339 15.2098C39.6953 15.2742 39.4506 15.2356 39.4506 15.1455C39.4506 15.0553 39.3605 15.2485 39.4506 15.3644C39.5408 15.4674 39.3476 15.622 39.2961 15.622C39.2575 15.622 38.9742 15.6606 39.206 15.8023C39.4378 15.9311 39.6953 15.8667 39.6953 15.8667C39.6953 15.8667 39.8884 15.8409 39.9528 15.9568C40.0172 16.0598 39.927 16.0856 39.824 16.0856C39.721 16.0856 39.206 16.047 39.206 16.047C39.206 16.047 39.0773 16.1886 39.1416 16.253ZM41.6395 13.7932C41.5751 13.703 41.5107 13.6386 41.4206 13.6C41.3305 13.5614 41.2661 13.5098 41.1888 13.5098C41.0987 13.5098 41.0215 13.4197 41.0601 13.3167C41.0987 13.2136 40.9957 13.1621 40.9957 13.072C40.9957 12.9818 41.0601 12.9818 41.1631 13.0462C41.2661 13.1106 41.2532 13.1364 41.3305 13.2394C41.4206 13.3424 41.4592 13.4583 41.5494 13.4326C41.6395 13.4068 41.7039 13.6258 41.7811 13.5614C41.8712 13.497 41.8455 13.7159 41.8455 13.7159L41.6395 13.7932ZM41.4335 13.9992C41.4979 14.0894 41.6266 14.1538 41.6266 14.2439C41.6266 14.3341 41.588 14.3985 41.7167 14.4114C41.8455 14.4371 41.9356 14.3856 41.9742 14.5015C42.0129 14.6045 42.0129 14.7848 42 14.875C41.9743 14.9651 42.0258 15.0939 42.1288 15.0939C42.2318 15.0939 42.2575 15.1197 42.2575 15.1841C42.2575 15.2485 42.3863 14.9394 42.3863 14.9394C42.2833 14.8492 42.1931 14.6561 42.1931 14.6561C42.1931 14.6561 42.0901 14.347 42.0901 14.3083C42.0901 14.2697 41.9356 14.2182 41.8712 14.2053C41.8069 14.1795 41.7039 13.9864 41.7039 13.9864L41.4335 13.9992ZM42.824 17.5152L42.7339 17.322C42.7339 17.322 42.7339 17.1545 42.7725 17.0644C42.8112 16.9742 42.6824 16.897 42.618 16.8712C42.5536 16.8455 42.5794 16.678 42.5536 16.5879C42.5279 16.4977 42.3863 16.4333 42.3863 16.4333C42.3863 16.4333 42.3476 16.1114 42.3476 16.047C42.3476 15.9826 42.1545 15.8924 42.2189 15.828C42.2833 15.7636 42.3219 15.6735 42.3863 15.6348C42.4506 15.5962 42.3219 15.2871 42.4249 15.3515C42.5279 15.4159 42.5279 15.5318 42.5794 15.6091C42.618 15.6992 42.5536 15.9955 42.6695 16.0598C42.7725 16.1242 42.6438 16.3432 42.824 16.3432C42.9914 16.3432 42.8884 16.7553 42.8884 16.7553C42.8884 16.7553 42.8498 17.0644 42.9528 17.0773C43.0558 17.103 42.9914 17.6182 42.9914 17.6182L42.824 17.5152ZM42.8884 19.1765L42.9528 19.0477L43.0687 19.1121L43.0043 19.2409L42.8884 19.1765ZM43.03 18.4682L43.1588 18.4811L43.1459 18.6614L43.0172 18.6356L43.03 18.4682ZM42.7597 17.747L42.5923 17.7212L42.206 17.7856L41.9871 18.1977C41.9871 18.1977 42.0901 18.2621 42.1803 18.4167C42.2704 18.5712 42.309 19.4598 42.0515 19.6144C41.794 19.7689 42.0773 19.6788 42.0773 19.6788L42.0386 20.1553C42.103 20.3742 42.206 20.2583 42.2704 20.1553C42.3348 20.0523 42.3991 20.0265 42.4893 19.9106C42.5794 19.8076 42.7082 19.6015 42.721 19.4598C42.7468 19.3053 42.8498 19.0735 42.7854 19.0091C42.721 18.9447 42.8498 18.6356 42.8498 18.6356C42.8498 18.6356 42.9399 18.4553 42.8498 18.2879C42.7597 18.1076 42.8755 17.9144 42.9399 17.8371L42.7597 17.747ZM41.8197 15.5318H41.4979C41.4979 15.5318 41.6009 15.5705 41.3047 15.2871C41.0086 15.0038 40.8154 15.3515 40.8154 15.3515L40.4678 15.3902V15.7379L40.3004 15.8023L40.3262 16.0212L40.5579 15.9955C40.5579 15.9955 40.5579 16.253 40.6223 16.15C40.6867 16.047 41.2275 16.1758 41.176 16.4333C41.1631 16.5364 41.7167 16.8197 41.6524 17.1674C41.9356 17.2061 41.8712 17.4894 41.8712 17.4894L42.2318 17.528L42.3348 17.3091L42.4378 17.3348V17.2061L42.206 17.1417L42.1674 16.4462L42.0129 16.3432L42.0515 16.1629L41.8841 16.0985L41.9742 15.8152L41.8197 15.5318ZM41.0215 20.8636L41.1502 20.8121L41.0987 20.7091L41.073 20.6318L41.0086 20.6705L40.8541 20.7606L40.7124 20.6705L40.6481 20.7864L40.8154 20.8894L40.8541 20.9151L40.8798 20.8894L41.0086 20.825L41.0215 20.8636ZM41.588 20.5803L41.8197 20.6189L41.8455 20.4901L41.6137 20.4515L41.588 20.5803ZM41.1502 23.3621C41.0601 23.2333 41.5751 23.0144 41.6652 23.272C41.7554 23.5295 41.6652 23.4909 41.5751 23.4651C41.4979 23.4394 41.279 23.5295 41.1502 23.3621ZM38.9356 27.5477H39.0901V27.9598H38.9356V27.5477ZM39.927 31.5273C39.8884 31.6947 39.7339 31.7848 39.6438 31.7205C39.5536 31.6561 39.7468 31.8235 39.7983 31.9136C39.8369 32.0038 39.9657 32.0038 40.0172 31.9136C40.0558 31.8235 40.0429 31.6303 40.0815 31.5401C40.1202 31.4629 39.9528 31.4371 39.927 31.5273ZM40.4034 32.403L40.5966 32.4932L40.6223 32.8667C40.8798 33.1242 41.7167 32.9053 41.7167 32.8409C41.7167 32.7765 41.6781 32.0424 41.6781 32.0424L41.5751 31.9394L41.5494 31.3985C41.6395 31.1151 41.1373 30.703 41.0987 30.7932C41.0601 30.8833 40.7768 30.8189 40.7768 30.8962C40.7768 30.9864 40.6094 31.4114 40.6867 31.5659C40.7768 31.7205 40.6223 31.7204 40.5966 31.875C40.5708 32.0038 40.3519 32.2614 40.4034 32.403ZM34.3777 27.7538L34.3133 27.6508L34.133 27.7538L34.2103 27.8697L34.3777 27.7538ZM31.1073 28.1788C31.0043 28.2818 31.03 28.372 31.1073 28.4492V28.1788ZM31.7768 28.7068L31.9185 28.4621L31.8026 28.4235L31.6481 28.5265L31.7124 28.5909L31.7768 28.7068ZM31.6481 21.9197C31.7382 22.1129 31.7124 22.3962 32.0343 22.6151C32.1373 22.6924 31.97 22.8341 31.867 22.7697C31.7639 22.7053 31.4549 22.2288 31.4549 22.2288V21.9455C31.5193 21.778 31.6094 21.8424 31.6481 21.9197ZM30.515 23.053C30.5665 23.2462 30.5536 22.7439 30.6438 22.7697C30.7339 22.7955 30.6695 22.4606 30.6695 22.4606L30.2833 22.7439C30.4635 22.7697 30.4893 22.9629 30.515 23.053ZM29.3562 24.4439C29.3305 24.7015 29.0086 24.7917 29.0086 24.7917L28.7768 24.7273L28.6481 24.6242L28.6223 24.3151L28.8155 24.2894L28.8541 24.4182L29.3562 24.4439ZM29.0086 21.8167V21.5076L28.97 21.2242L28.6481 21.0697L28.4163 21.2886L28.3777 21.5977V21.7909L28.1588 21.8295L28.1202 22.422L27.9528 22.4864L27.9785 22.7053L27.515 22.8341L27.4764 23.1174L27.309 23.2205L27.2189 23.478L27.1159 24.1091C27.1159 24.1091 27.309 24.4826 27.412 24.3023C27.515 24.1348 27.6953 24.1091 27.6953 24.1091L27.7597 23.9545L28.3391 23.9803C28.3777 23.7356 28.6609 23.8258 28.6609 23.9417C28.6609 24.0447 28.8798 23.9674 28.8798 23.9674L29.0343 23.7227H29.2661L29.2918 23.4651L29.3948 23.4008V23.0144C29.7425 22.9114 29.691 22.5765 29.691 22.5765L29.7811 22.4735L29.7425 22.3189C29.5751 22.2545 29.6524 22.1 29.7682 22.1386C29.8712 22.1773 29.6137 21.9455 29.6137 21.9455C29.485 22.0485 29.382 21.8167 29.382 21.8167H29.0086ZM28.03 20.928L27.8627 20.9667L27.4764 21.3401L27.4506 21.5076L27.3476 21.6621L27.2189 21.9841L26.7682 22.0098L26.6781 22.3962L26.7425 22.7311L27.1288 22.8856L27.1674 22.6667L27.2961 22.6023L27.3219 22.3833L27.412 22.2288L27.5408 22.0742L27.5794 21.9068L27.7983 21.778L28.0558 21.7265L28.1588 21.5977L28.1974 21.3401L28.2232 21.147L28.3133 21.0053L28.5708 20.9023V20.4901H28.4421L28.4163 20.3356L28.1845 20.3098L28.133 20.4258H28.03L28.0043 20.5932H28.133L28.1588 20.7348L28.0687 20.8121L28.03 20.928ZM21.2318 23.5424C21.2318 23.5939 21.1931 23.6326 21.1416 23.6326C21.0901 23.6326 21.0515 23.5939 21.0515 23.5424C21.0515 23.4909 21.0901 23.4523 21.1416 23.4523C21.1931 23.4523 21.2318 23.4909 21.2318 23.5424ZM21.2189 26.028C21.2189 26.0795 21.1803 26.1182 21.1288 26.1182C21.0773 26.1182 21.0386 26.0795 21.0386 26.028C21.0386 25.9765 21.0773 25.9379 21.1288 25.9379C21.1803 25.9379 21.2189 25.9765 21.2189 26.028ZM20.9871 25.6674C21.0386 25.6674 21.0773 25.6288 21.0773 25.5773C21.0773 25.5258 21.0386 25.4871 20.9871 25.4871C20.9356 25.4871 20.897 25.5258 20.897 25.5773C20.897 25.6288 20.9356 25.6674 20.9871 25.6674ZM20.7296 26.1826L20.5494 26.2083V26.3629L20.7296 26.3371V26.1826ZM20.9227 25.075L20.7682 25.1008L20.7554 25.2682L20.9227 25.2939V25.075ZM20.8841 23.903L20.897 23.7485L20.5751 23.9674L20.3691 23.8386V24.3538L20.7039 24.8174L20.8326 24.5083L20.8841 24.3151L20.7296 24.2508L20.7554 23.9288L20.8841 23.903ZM20.7554 22.0742L20.3691 22.0356L20.3948 22.1901H20.4979C20.6652 22.4992 20.5236 23.2333 20.5236 23.2333C20.5236 23.2333 20.2661 23.2591 20.2275 23.1303C20.1888 23.0015 20.073 23.4136 20.1631 23.478C20.2532 23.5424 20.5494 23.478 20.5751 23.7227C20.6009 23.9674 20.7682 23.5682 20.7682 23.5682L20.7554 22.0742ZM29.382 17.7727H29.1502L29.1116 17.2962L29.2403 17.2061V16.9614H28.4936L28.4678 16.7167L28.5708 16.6523L28.4034 16.5879L28.2747 16.7553L28.2361 16.9485L28.0172 16.9871V17.0901H27.8627V17.3735L27.2575 17.8758L26.0601 17.8371C25.97 18.0303 25.7639 17.8114 25.7639 17.8114C25.7253 17.6826 25.4163 17.8114 25.4163 17.8114C25.4163 18.0561 25.0043 17.7083 25.0043 17.7083L24.2575 17.1674C23.8326 16.7811 23.1888 17.2705 23.1631 17.3864C23.1888 17.6955 22.6738 17.4508 22.6738 17.4508C22.6738 17.4508 22.2489 17.322 22.1845 17.4894C22.1202 17.6568 21.8369 17.6182 21.8369 17.6182L21.7983 17.7083L21.5794 17.747L21.5408 17.8758L21.2833 17.9144L21.927 17.8886C22.0944 17.8629 21.8627 18.2621 21.7597 18.2364L21.4635 18.2621L21.3605 18.3651H21.0773L20.9485 18.5455L20.5365 18.5197C20.5365 18.5197 20.3047 18.7129 20.3176 18.7773C20.3433 18.8417 20.279 19.0348 20.2146 19.0348C20.1502 19.0348 20.0215 19.228 20.0601 19.2924C20.0987 19.3568 19.9313 19.5758 19.9313 19.5758L19.8927 19.7947L19.7639 19.8333V20.4258L19.5064 20.6061V20.8636L19.1202 21.2758L19.1588 21.6235L18.8369 21.9712L18.8755 22.3189L18.6824 22.3833L18.6438 22.5379L18.5536 22.9886L18.7725 23.0144C18.8755 22.9758 18.8627 23.2977 18.7725 23.3364C18.6824 23.375 18.4506 23.4652 18.5794 23.5553C18.7082 23.6455 18.2318 23.6197 18.2318 23.4909C18.2318 23.3621 17.9742 23.2462 17.9099 23.2977C17.8455 23.3364 17.7425 23.1045 17.7425 23.1045C17.5107 22.8598 16.7768 23.1303 16.7768 23.1303L16.6738 23.478C16.4421 23.5167 16.2876 23.9159 16.2876 23.9159C16.0944 23.9803 15.9399 24.225 16.0043 24.2894C16.0687 24.3538 15.9013 24.3795 15.9013 24.3795V24.8561L15.7983 25.0106L15.824 25.5258C15.9528 25.5258 15.927 25.7705 15.927 25.7705C15.7082 25.7962 15.7597 26.0795 15.7597 26.0795L15.309 26.2341L15.2189 26.3629L14.6652 26.3371L14.5107 26.4917L14.3562 26.3371H13.2876L13.2489 26.2341L13.03 26.1955L13.0043 25.9508L12.6824 25.9765L12.618 26.1053L12.2704 26.1311C12.2961 26.35 11.9227 26.672 11.8841 26.5818C11.8455 26.4917 11.6009 26.2598 11.7167 26.2083C11.8197 26.1697 12.103 26.1182 12.103 26.1182V25.9636L11.3047 25.9379L11.2146 26.0667L10.8927 26.0924V26.4401L10.7382 26.4788C10.6352 26.5432 10.7639 26.7879 10.7639 26.7879C10.9185 26.9424 10.7382 27.1742 10.7382 27.1742C10.6094 27.303 10.8412 27.5477 10.8412 27.5477C11.0086 27.5864 10.7382 27.7151 10.7382 27.7151C10.7768 27.9341 10.9056 27.9985 10.9056 27.9985C10.7768 28.2174 10.9957 28.3205 10.9957 28.3205L11.0215 28.6939L11.176 28.7841V29.0288L11.2661 29.1833H11.6137L11.588 28.6424C11.2918 28.2947 11.8455 28.2045 11.8712 28.3333C11.897 28.4621 12.1288 28.5265 12.1288 28.5265C12.1674 28.8485 12.5408 29.0417 12.6438 28.7197C12.7468 28.3977 12.8369 28.5909 12.9013 28.7455C12.9657 28.9 13.3777 29.2735 13.3777 29.2735H13.6996L13.7382 29.5826C14.0987 29.5568 14.2146 29.6083 14.3562 30.0977C14.5107 30.6 14.9099 30.7288 14.9099 30.7288L15.206 30.703C15.206 30.4455 15.5021 30.7417 15.5021 30.8833C15.5021 31.0121 16.0815 31.5144 16.0815 31.5144L16.6609 31.6432L17.2017 32.0811L17.6137 32.0424H17.7811C17.8841 31.6689 18.3991 32.0682 18.4506 32.197C18.4893 32.3258 18.8369 32.5447 18.8755 32.4417C18.9142 32.3386 19.1588 32.403 19.1974 32.725C19.2361 33.047 19.3906 32.9826 19.3906 32.9826L20.6137 32.9568L21.0386 32.5833L22.133 32.5576C22.6867 32.5318 22.3519 31.772 22.2361 31.772C22.0429 31.6174 22.3004 30.9864 22.3004 30.9864L20.7425 29.5311C20.382 29.5311 20.7039 29.003 20.7039 29.003C20.9871 28.8227 20.6395 28.5523 20.6395 28.5523C20.6781 28.2947 20.485 27.9856 20.485 27.9856C20.0987 27.728 20.2017 27.2258 20.2017 27.2258V26.878C19.8798 26.5689 20.3305 26.5303 20.3305 26.5303C20.485 26.2727 20.2275 26.0795 20.2275 26.0795L20.2017 25.7962L19.8541 25.7576L19.8154 24.7401L19.0429 23.6326C18.8884 23.5939 19.0043 23.3235 19.0043 23.3235C19.1974 23.2205 18.9657 22.95 18.9657 22.95L18.9399 22.4735L19.3906 22.4348L19.4936 22.2674H19.7124L19.6867 21.7008C19.7897 21.4174 20.0472 21.572 20.0472 21.572L20.3433 21.5977L20.5107 21.2758L20.5494 21.0182L20.3176 20.9924C20.0601 20.8379 20.1888 20.2712 20.1888 20.2712C20.6009 19.6659 21.0644 20.0136 21.0644 20.0136L21.3605 19.9879C21.8112 20.297 21.3991 20.8508 21.3991 20.8508C21.309 20.9795 21.3605 21.3917 21.3605 21.3917L21.4635 22.0871L21.1803 22.3318C20.9485 22.4606 20.9485 22.7697 21.206 22.8341C21.3734 22.8598 21.309 23.272 21.0515 22.9886C20.6652 22.9886 21.2704 23.3364 21.0901 23.2462C21.4764 23.4394 21.3863 23.0788 21.3863 23.0788L21.9013 22.6667C22.0944 22.5121 22.4421 22.9886 22.4421 23.053C22.4421 23.1174 23.2918 23.0788 23.2918 23.0788C23.5236 23.2333 23.6137 23.6197 23.6137 23.6197C23.8455 23.3106 24.3476 23.5939 23.9742 23.7742C24.3219 23.9932 24.3219 24.1864 24.3219 24.1864C24.6051 24.0962 24.6052 24.3151 24.6052 24.3795C24.6052 24.4439 24.6953 24.0576 24.6953 24.0576C24.3734 23.8129 25.1202 23.7356 24.9142 24.1606L24.7854 24.3538L25.0043 24.5212L25.03 25.0235C25.5064 24.9848 25.3777 24.3924 25.3777 24.3924L25.5966 24.3538C25.5966 24.1606 25.7511 24.2636 25.7511 24.2636C25.5966 23.5295 26.0987 23.4008 26.0987 23.4008C26.382 23.3364 26.3948 22.7439 26.3948 22.7439C26.2017 22.6538 26.3047 22.3576 26.5236 22.6151C26.7425 22.8727 26.3948 22.0871 26.3948 22.0871L26.2275 21.9326L25.9957 21.9068L25.97 21.6621H25.5837L25.5193 21.9712L25.3777 22.0356L25.3391 21.9455L25.2747 22.1901H24.8884L24.8627 21.9326L25.0944 21.8682L25.1845 21.7394L25.2489 21.3917H25.5322L25.8927 21.2886C25.9185 20.9151 26.1116 21.0053 26.1116 21.0053L26.4335 21.2629L26.4592 21.3917L26.3305 21.4561L26.3047 21.6364L26.3691 21.8811H26.5365C26.6009 21.5333 27.0515 21.5333 27.1803 21.7523L27.309 21.4432C27.0129 21.2886 27.309 21.0568 27.3863 21.1598C27.4764 21.2629 27.6695 20.8765 27.6695 20.8765C27.6695 20.8765 27.824 21.0697 27.6695 20.8121C27.515 20.5545 27.7725 20.4258 27.7725 20.4258C27.7339 20.1682 28.0558 20.2068 28.0558 20.2068L28.0815 19.8591L27.7854 19.8333C27.721 20.1424 27.4635 19.872 27.5923 19.8076C27.721 19.7432 27.8498 19.6144 27.8498 19.6144V19.3955L27.9785 19.3568L28.0043 19.1379H28.3262L28.6094 19.0091L28.6738 18.9061L28.97 18.8803L29.3948 18.4939L29.3562 18.3265C29.0987 18.3265 29.3562 18.1333 29.3562 18.1333L29.382 17.7727ZM17.7554 37.3098L17.588 37.0523L17.8455 37.0909L18.1159 37.3227L18.2318 37.6061L18.0773 37.6962L17.9871 37.5674L17.7811 37.503L17.7554 37.3098ZM13.03 30.7932L13.133 31.0894L13.2876 31.2053L13.4292 31.5273L13.3519 31.6818L13.1073 31.4629L12.9399 31.2182L12.8498 31.025L12.7082 30.6386L13.03 30.7932ZM11.7425 29.6341H11.6395V29.853H11.8069V30.1364H11.9356L11.9099 29.8144L11.7425 29.75V29.6341ZM28.5837 16.3947L28.7124 16.3689L28.7382 16.4977L28.6094 16.5235L28.5837 16.3947ZM28.7382 16.3174L28.7768 16.1886L28.9442 16.2402L28.9185 16.3689L28.7382 16.3174ZM29.0472 16.1886L29.0601 16.0598L28.9185 16.0341L28.8927 16.1629L29.0472 16.1886ZM29.2661 15.9053H29.4335V16.0341H29.2661V15.9053ZM30.3605 16.0598L30.3734 15.9311L30.5279 15.9439L30.5021 16.0727L30.3605 16.0598ZM30.7854 16.15L30.7983 16.0212L30.6438 15.9955L30.6309 16.1242L30.7854 16.15ZM30.9399 16.1629H31.1073V16.2917H30.9399V16.1629ZM31.133 16.3818V16.5364L31.2618 16.5235V16.3689L31.133 16.3818Z" fill="#B2B2B2"/>
</svg>
